# xmcd
# 
# Track frame offsets:
#   150
#   14749
#   33958
#   54024
#   70030
#   85805
#   104759
#   125302
#   144468
#   159024
#   178234
#   198300
#   214285
#   230056
#   249000
#   269535
# 
# Disc length: 3849 seconds
# 
# Revision: 0
# Processed by: cddbd v1.5.2PL0 Copyright (c) Steve Scherf et al.
# Submitted via: VOLTOCDX V1.0.24 
# 
DISCID=db0f0710
DTITLE=Various Artist - Super Male Country Vol. 2
DYEAR=2009
DGENRE=Karaoke
TTITLE0=I Wanna Talk About Me - Toby Kieth
TTITLE1=I Love You This Much - Jimmy Wayne
TTITLE2=The Cowboy In Me - Tim McGraw
TTITLE3=The Good Stuff - Kenny Chesney
TTITLE4=I'm Gonna Miss Her - Brad Paisley
TTITLE5=What Was I Thinkin - Dierks Bently
TTITLE6=She's My kind Of Rain - Tim McGraw
TTITLE7=I Breath In, I breath Out - Chris Cagle
TTITLE8=
TTITLE9=
TTITLE10=
TTITLE11=
TTITLE12=
TTITLE13=
TTITLE14=
TTITLE15=
EXTD=
EXTT0=
EXTT1=
EXTT2=
EXTT3=
EXTT4=
EXTT5=
EXTT6=
EXTT7=
EXTT8=
EXTT9=
EXTT10=
EXTT11=
EXTT12=
EXTT13=
EXTT14=
EXTT15=
PLAYORDER=
